# written by convert_mb_to_amc()
:FULLY-SPECIFIED
:DEGREES
16
upperback 3.285274 9.906521 -6.108916
rfoot -23.919182 -17.449711
lradius 18.188768
lthumb 45.682041 -283.415924
rradius 14.215676
lwrist -22.164223
rhand -42.708134 -17.850769
rhumerus 24.549858 7.254914 -56.207390
lowerneck -11.156167 -3.418808 -0.508206
lhand 21.237734 53.559124
ltibia 76.536308
head 11.741952 -3.617640 4.647329
rwrist 17.012758
lfingers 7.125020
rtoes -20.962784
lowerback 1.906777 7.552290 -0.611559
rfingers 7.125020
lclavicle -0.000000 0.000000
upperneck 26.978424 -10.811929 16.495977
rfemur -5.287451 -7.021105 37.975555
thorax 3.345156 4.931609 -5.841312
rclavicle -0.000000 0.000000
rtibia 25.908905
lfoot -6.060912 24.872953
lhumerus -56.108482 39.121746 1.282637
rthumb -15.577203 -47.242191
root -19.687574 18.781099 -1.381714 160.822861 -59.392056 216.691956
ltoes 9.948387
lfemur -51.218155 1.097676 0.455848
17
upperback -0.949774 8.203994 3.814588
rfoot 14.989017 -21.794226
lradius 53.187103
lthumb 42.621819 -314.120514
rradius 71.548256
lwrist 54.295963
rhand -21.439140 5.796710
rhumerus 80.544807 -11.803514 -29.949154
lowerneck -9.632468 -4.722802 -0.328463
lhand 17.951391 21.503679
ltibia 45.658051
head 12.624676 -3.631827 -3.662667
rwrist -53.009701
lfingers 7.125020
rtoes -9.471939
lowerback -0.514365 6.242883 10.231153
rfingers 7.125020
lclavicle -0.000000 -0.000000
upperneck 33.908875 -5.203094 -7.677396
rfemur 5.764501 -17.787254 9.461899
thorax 0.164554 4.016743 -1.575936
rclavicle -0.000000 -0.000000
rtibia 62.565437
lfoot -22.636026 15.467249
lhumerus -52.371689 64.191376 -35.849594
rthumb 4.950347 -24.125257
root -26.658428 18.690969 -1.890116 20.880886 -70.512009 336.219513
ltoes 12.229857
lfemur -19.751375 1.794918 -27.300638
18
upperback 2.867385 -12.676996 4.142260
rfoot 13.253190 6.132343
lradius 48.082516
lthumb 15.432941 -307.690674
rradius 28.963612
lwrist 10.089468
rhand -28.278406 35.671242
rhumerus -50.344372 -51.696442 14.712603
lowerneck -7.525193 5.052938 7.386835
lhand -10.571678 22.907688
ltibia 76.108109
head 4.791660 3.012305 -6.078157
rwrist -36.791340
lfingers 7.125020
rtoes 0.021744
lowerback 3.752324 -9.365126 -2.140506
rfingers 7.125020
lclavicle 0.000000 -0.000000
upperneck 8.640261 7.592182 -17.136190
rfemur -63.795074 10.433433 -6.978415
thorax 2.313505 -6.500879 5.518593
rclavicle 0.000000 -0.000000
rtibia 56.093189
lfoot -28.892612 -7.769459
lhumerus 59.923035 -19.946724 29.181061
rthumb -1.654803 5.701029
root -32.558609 16.251841 0.466594 -10.361070 -57.122406 371.712067
ltoes -17.850380
lfemur -9.690809 22.992895 -32.191010
19
upperback 4.487770 0.470198 2.861286
rfoot -18.687473 0.286540
lradius 21.881157
lthumb 28.550974 67.346352
rradius 19.773029
lwrist -30.461597
rhand -48.691727 -23.681892
rhumerus -65.128288 -20.582970 -21.605276
lowerneck -7.327467 13.233600 20.065300
lhand 3.095137 39.467941
ltibia 125.555794
head 10.560263 8.829308 -5.757728
rwrist 17.882011
lfingers 7.125020
rtoes -28.304108
lowerback 6.575958 -0.027722 10.940457
rfingers 7.125020
lclavicle -0.000000 -0.000000
upperneck 19.118048 18.306000 -14.221124
rfemur -78.710342 -24.759647 -2.859453
thorax 1.091430 0.415416 -3.164327
rclavicle -0.000000 -0.000000
rtibia 112.882294
lfoot -27.617216 -32.892330
lhumerus 2.341836 -21.831247 10.870587
rthumb -21.332855 -52.527092
root -34.346188 10.864496 2.026989 8.629622 -16.501919 351.376953
ltoes -27.720064
lfemur -3.524622 37.701431 36.281971
20
upperback 7.016697 -7.012010 8.824725
rfoot -7.140287 28.722689
lradius 16.820436
lthumb 43.990108 44.912239
rradius 5.999323
lwrist -4.257867
rhand -56.550671 11.648868
rhumerus -49.234730 3.377649 -27.141500
lowerneck -14.125629 0.492273 5.875119
lhand 19.416420 21.189964
ltibia 114.904114
head 5.284308 0.026755 -0.508792
rwrist 5.305251
lfingers 7.125020
rtoes -20.607193
lowerback 14.148208 -6.480658 5.891637
rfingers 7.125020
lclavicle -0.000000 0.000000
upperneck 9.887557 -0.672141 1.574188
rfemur -105.657433 -10.650977 32.000530
thorax 0.035711 -3.299271 7.061318
rclavicle -0.000000 0.000000
rtibia 102.417824
lfoot -18.817959 -24.623240
lhumerus -14.392777 -9.615891 70.520264
rthumb -28.862169 -16.136314
root -29.981319 11.733245 6.861207 -81.772827 68.323212 260.931122
ltoes -26.319174
lfemur -22.862755 56.309856 -7.739118
21
upperback 2.629625 2.654312 0.775987
rfoot -33.398338 -19.633303
lradius 72.243027
lthumb 13.698769 55.588345
rradius 57.549438
lwrist 35.731277
rhand 16.023119 -23.993158
rhumerus 67.394272 15.448164 -30.814915
lowerneck -8.410668 2.592056 8.905655
lhand -12.371730 26.059870
ltibia 63.217880
head 2.829599 1.459484 -5.305758
rwrist -41.726379
lfingers 7.125020
rtoes -7.289762
lowerback 11.359415 1.519632 3.228028
rfingers 7.125020
lclavicle 0.000000 -0.000000
upperneck 3.554417 3.451353 -13.154787
rfemur -81.098938 -16.788616 43.067516
thorax -3.509019 1.389194 -1.388063
rclavicle 0.000000 -0.000000
rtibia 89.422272
lfoot -8.644464 -2.185730
lhumerus 44.063095 0.856766 16.526817
rthumb 40.812435 -48.957489
root -22.321646 15.507957 10.434288 -155.037506 14.811616 182.678024
ltoes -26.915287
lfemur -20.882914 -6.009194 12.678292
22
upperback 2.756618 -1.655017 1.149099
rfoot -15.217435 -20.311710
lradius 53.610481
lthumb 4.898818 46.446075
rradius 66.424248
lwrist 6.570776
rhand -0.929885 -26.114908
rhumerus -25.370062 15.952449 -55.898098
lowerneck 0.590963 15.561180 17.400141
lhand -21.492441 16.524632
ltibia 58.757015
head 5.177305 10.843207 -6.371410
rwrist -22.826918
lfingers 7.125020
rtoes -9.065075
lowerback 7.948248 -1.759369 8.444057
rfingers 7.125020
lclavicle 0.000000 0.000000
upperneck 4.809588 21.895786 -17.103260
rfemur -42.124302 -12.630538 23.269787
thorax -1.785227 -0.810609 -3.386318
rclavicle 0.000000 0.000000
rtibia 61.300236
lfoot -37.092632 19.255127
lhumerus 43.709293 -45.142899 41.442490
rthumb 24.699404 -54.540283
root -13.752707 17.823858 2.186311 3.464004 6.031227 -5.950384
ltoes 46.404804
lfemur -44.060482 13.521191 0.125404
23
upperback 0.366900 -5.323718 3.853447
rfoot -7.141914 -10.459590
lradius 30.255716
lthumb 14.517756 23.735294
rradius 13.527267
lwrist -11.675876
rhand -49.914036 24.179123
rhumerus -53.322361 -9.035534 -47.337761
lowerneck -8.726371 6.220952 10.481124
lhand -11.520502 -6.258222
ltibia 45.978184
head 5.160622 3.941904 -5.101996
rwrist 26.551208
lfingers 7.125020
rtoes -12.283716
lowerback 4.066439 -4.443732 6.950743
rfingers 7.125020
lclavicle 0.000000 -0.000000
upperneck 9.003001 8.630341 -12.928183
rfemur -49.651749 0.271792 3.093482
thorax -2.169306 -2.611920 0.431188
rclavicle 0.000000 -0.000000
rtibia 59.963291
lfoot -23.786905 -11.901038
lhumerus 15.719496 -24.849819 50.366894
rthumb -22.507914 -5.555812
root -1.772474 17.391451 -5.268203 -169.076492 27.754915 -175.391174
ltoes 6.622900
lfemur -2.027557 2.886894 -28.698883
24
upperback 1.772539 5.286051 2.205363
rfoot -33.135139 -14.387486
lradius 19.352249
lthumb 5.638579 67.412163
rradius 36.023724
lwrist -15.080269
rhand -31.051105 -34.509926
rhumerus 8.299246 9.654871 -61.147560
lowerneck -5.107705 -0.148819 5.925574
lhand -20.726305 37.508488
ltibia 25.376238
head 4.448470 0.164917 -2.286654
rwrist 5.496818
lfingers 7.125020
rtoes -27.040932
lowerback 2.799571 3.698859 8.199001
rfingers 7.125020
lclavicle -0.000000 -0.000000
upperneck 12.086515 0.040959 -4.303796
rfemur 1.098906 -2.401995 22.823795
thorax 0.790449 2.781924 -2.372483
rclavicle -0.000000 -0.000000
rtibia 47.504169
lfoot -16.124828 44.533333
lhumerus -61.341511 1.246996 48.827778
rthumb -4.332449 -64.443344
root 6.300716 17.558834 -20.306660 -178.751114 17.486877 -169.270660
ltoes 10.537224
lfemur -44.336777 -15.265918 7.480899
25
upperback -0.496157 -0.020745 -0.388470
rfoot -16.321589 -7.885329
lradius 50.943581
lthumb -2.882784 53.106514
rradius 38.908371
lwrist 2.467884
rhand -36.774975 -7.520927
rhumerus -44.096714 2.806982 -92.624809
lowerneck -4.861122 -1.836846 2.422584
lhand -29.549913 23.148077
ltibia 38.583241
head 3.737435 -1.390024 -0.563997
rwrist -7.650605
lfingers 7.125020
rtoes -10.932059
lowerback 3.068821 0.015849 -0.777050
rfingers 7.125020
lclavicle 0.000000 0.000000
upperneck 8.967865 -2.837162 -0.000184
rfemur -26.841255 11.815204 17.719742
thorax -2.228789 -0.004362 0.038115
rclavicle 0.000000 0.000000
rtibia 42.995140
lfoot -10.762991 5.078584
lhumerus -34.688198 -7.334229 78.629135
rthumb -9.857528 -37.269718
root 7.609749 19.470192 -31.309855 -178.746078 -1.412811 -177.283875
ltoes 9.830263
lfemur -22.316479 -9.274367 -19.697191
26
upperback -1.991059 -1.145122 -0.368644
rfoot -22.151127 -7.749343
lradius 16.816828
lthumb 3.142111 60.430130
rradius 36.054749
lwrist -20.891214
rhand -35.696854 -3.239513
rhumerus -46.247696 -1.211241 -85.370705
lowerneck -5.391767 -2.649489 1.784642
lhand -23.311657 30.473577
ltibia 39.138222
head 2.841187 -1.827855 -1.221605
rwrist 1.888419
lfingers 7.125020
rtoes 2.737957
lowerback 1.395119 -0.803594 -1.188765
rfingers 7.125020
lclavicle 0.000000 0.000000
upperneck 6.198241 -3.563662 -2.372584
rfemur -21.657103 5.806917 20.881973
thorax -2.809595 -0.563253 0.331753
rclavicle 0.000000 0.000000
rtibia 43.368484
lfoot -22.581249 -1.866129
lhumerus -39.308571 11.200933 71.246506
rthumb -8.817272 -33.034969
root 8.640148 19.197899 -34.256336 -175.935623 -6.868129 -179.996567
ltoes 11.330319
lfemur -15.880735 -7.165170 -19.827557
27
upperback -1.462967 -0.252112 -0.339762
rfoot -21.879793 -8.024882
lradius 40.185379
lthumb -1.768578 60.127167
rradius 28.928877
lwrist -3.705551
rhand -34.616093 -6.180484
rhumerus -44.853096 1.247968 -87.369392
lowerneck -6.228872 -3.481508 1.565551
lhand -28.396233 30.155035
ltibia 38.836441
head 2.783374 -2.370135 -1.205736
rwrist 3.052589
lfingers 7.125020
rtoes 1.669590
lowerback 1.584831 -0.164208 -0.470518
rfingers 7.125020
lclavicle 0.000000 0.000000
upperneck 5.620267 -4.660767 -2.281712
rfemur -21.759016 4.747645 21.115997
thorax -2.387632 -0.126404 -0.075321
rclavicle 0.000000 0.000000
rtibia 43.440098
lfoot -22.302748 -0.591199
lhumerus -41.552769 -7.141400 85.883972
rthumb -7.774242 -36.017509
root 8.921743 19.205088 -34.134098 -176.166595 -8.165829 -180.573441
ltoes 10.419438
lfemur -16.004353 -9.577468 -19.632357
28
upperback -0.937066 -0.020923 -0.939523
rfoot -23.255493 -8.084124
lradius 26.876572
lthumb 2.573805 59.919590
rradius 26.107576
lwrist -7.181174
rhand -33.438595 -3.999290
rhumerus -38.254650 -6.014042 -82.487259
lowerneck -6.354475 -0.271570 4.256379
lhand -23.900110 29.955469
ltibia 37.579182
head 1.422984 -0.307656 -1.596736
rwrist 7.126832
lfingers 7.125020
rtoes -11.028531
lowerback 4.363707 0.055997 -1.401516
rfingers 7.125020
lclavicle -0.000000 0.000000
upperneck 1.131942 -0.579786 -2.688349
rfemur -30.441984 -0.332292 18.915449
thorax -3.412136 0.014381 -0.180020
rclavicle -0.000000 0.000000
rtibia 60.757366
lfoot -14.942241 7.655626
lhumerus -41.144035 0.461300 76.265465
rthumb -6.637630 -33.875259
root 8.073355 19.367912 -31.771523 -174.110062 3.481597 -180.707870
ltoes 11.558191
lfemur -25.276121 -5.612416 -22.157610
29
upperback -1.843082 3.620967 -0.517564
rfoot -24.542070 -4.895268
lradius 20.852417
lthumb 9.386325 52.571701
rradius 41.767143
lwrist -13.265810
rhand -33.867817 -1.831954
rhumerus -30.267225 1.326553 -86.772751
lowerneck -5.582181 -1.863708 3.393301
lhand -16.843454 22.802500
ltibia 34.054604
head 1.283996 -1.373384 -1.555015
rwrist 6.181233
lfingers 7.125020
rtoes -14.447846
lowerback 0.957586 2.671970 1.967826
rfingers 7.125020
lclavicle -0.000000 -0.000000
upperneck 1.347309 -2.661470 -2.879547
rfemur 3.046511 9.755920 28.588743
thorax -2.272617 1.778339 -1.732458
rclavicle -0.000000 -0.000000
rtibia 25.613363
lfoot 6.503971 14.915161
lhumerus -53.864319 10.267808 59.996258
rthumb -7.052002 -31.694477
root 8.166217 18.874044 -26.503632 -169.321808 6.257094 -177.108536
ltoes 11.539836
lfemur -47.332397 -9.932479 -8.224774
